<?xml version="1.0" encoding="utf-8"?>
<!-- Generator: Adobe Illustrator 25.0.0, SVG Export Plug-In . SVG Version: 6.00 Build 0)  -->
<svg version="1.1" id="图层_1" xmlns="http://www.w3.org/2000/svg" xmlns:xlink="http://www.w3.org/1999/xlink" x="0px" y="0px"
	 viewBox="0 0 1024 1024" style="enable-background:new 0 0 1024 1024;" xml:space="preserve">
<style type="text/css">
	.st0{fill-rule:evenodd;clip-rule:evenodd;fill:#FFFFFF;}
	.st1{fill-rule:evenodd;clip-rule:evenodd;fill:#137B3C;}
</style>
<circle class="st0" cx="504.11" cy="499.12" r="450"/>
<path class="st1" d="M885.2,408.76v3.55c-3.6-3.55-6.31-7.11-9.91-11.56c-0.9,0-0.9,0.89-1.8,0.89c1.8,0.89,3.6,0.89,7.2,7.12
	c-1.8,1.77-1.8,2.67-4.5,4.45c-3.61-0.9-7.21-0.9-10.81-1.77c1.81,2.66,2.7,5.32,3.6,8.89c0,1.79-0.9,3.56-0.9,4.45
	c-1.8,0.9-2.7,0-4.5,0c0,0-1.81,0-0.91-3.56c0-0.89-0.9-2.66-0.9-2.66c-0.89-1.79-1.8-1.79-2.7-3.55c2.7,0.88,3.6,0.88,3.6,1.76
	c-0.9-1.76-0.9-2.66-1.79-4.45c-5.41,1.79-9.92,4.45-15.32,5.35c-2.7,0.89-5.41,0.89-8.11,0c-0.9-1.79-0.9-1.79-0.9-3.56
	c0-0.89,0.9-1.79,0-5.34c-0.9-4.45,1.8-8.9,5.41-14.25l1.8-0.89c0.9-0.89-6.31,11.57-3.61,16.02c1.81,5.35,2.71,4.45,7.21,3.56
	c6.31-1.77,10.81-4.45,10.81-4.45c0.9,0-3.6-7.12-7.21-8.9c-1.8,0-2.7-0.9-2.7-1.79c0-2.67,2.7-7.11,3.6-7.11l2.71,0.89
	c0,0-0.9,0,0,3.55c0.9,3.56,9.01,12.47,9.01,12.47c6.3-0.89,8.1,0,9-0.89c-1.8-2.67-4.5-2.67-6.3-5.35c-0.9-4.45,0.91-6.24,1.8-8.01
	c5.41-0.89,9.91,4.45,11.71,8.9C881.6,405.2,883.4,406.99,885.2,408.76z M885.2,396.3c-0.9,0-0.9-0.9-1.8-1.79
	c0-1.77-0.91-4.44-0.91-7.12c0,0-2.7,0.9-1.8,1.8c-0.9,2.66,0,3.55-0.9,5.32c-0.9,0,1.81,2.67,5.41,6.24V396.3z M885.2,378.5v8.89
	c-0.9-0.88-1.8-0.88-1.8-0.88c-1.8,0-4.51,0.88-5.41,0.88c0-0.88,0-1.76,0.9-1.76c2.71-0.9,3.6-4.46,4.51-7.12H885.2z
	 M875.29,379.39c-0.9-0.89-11.71-7.12-18-2.67c-2.71,1.79-1.81,4.45-1.81,6.22c0,0,0,0.9-0.9,0.9c0,0,2.71,0.89,3.6,0
	c0.9-1.77,2.71-1.77,3.6-1.77c2.71,0.88,5.42,1.77,6.31,1.77h1.8l-3.6-2.67h3.6l3.61,0.9h1.8V379.39z M891.51,415.87v3.57
	l-6.31-7.14v-3.55C887,411.44,888.8,413.21,891.51,415.87z M891.51,403.42c0,0-0.91,0-0.91,0.89c-1.8-2.68-3.6-5.35-5.4-8.01v4.45
	c1.8,1.77,4.5,4.45,6.31,8.01V403.42z M891.51,393.63v6.24c-0.91,0-1.81-0.9-1.81-2.68v-1.79l-4.5-5.32
	C887,390.96,889.69,392.74,891.51,393.63z M891.51,384.73h-0.91c0,1.79,0,3.56,0.91,5.35V384.73z M891.51,375.83v2.67
	c-0.91,1.77-2.71,2.66-4.51,3.56c0,1.77,0.9,3.56,0,4.45c0,0.88-0.9,0.88-1.8,0.88v-8.89C887,378.5,888.8,376.72,891.51,375.83z
	 M891.51,378.5v-2.67l0.9-0.89C892.41,376.72,892.41,377.6,891.51,378.5z M895.1,418.55v5.34c-0.9-0.89-1.8-2.67-2.7-3.56l-0.9-0.88
	v-3.57l0.9,0.89C892.41,416.76,894.21,418.55,895.1,418.55z M895.1,390.96v11.56c-0.9,0.9-0.9,2.67-1.8,3.56c0.9,0,1.8,0,1.8,0.9
	v8.89c0-2.66-1.8-5.34-3.6-7.11v-5.34c0.9-1.79,1.8-2.67,2.7-3.56h-2.7v-6.24l0.9,0.89C893.31,393.63,894.21,391.85,895.1,390.96z
	 M895.1,381.17v6.22c-0.9,1.8-2.7,2.69-3.6,2.69v-5.35c0.9,0,1.8-0.89,2.7-1.79C894.21,382.94,895.1,382.94,895.1,381.17z
	 M895.1,387.39c2.7-1.76,4.5-3.55,4.5-5.32c0.91-0.9,0.91-3.56,0.91-4.46c0,0-1.81,0-2.71,0.9c-0.9,0.89-1.8,2.66-2.7,2.66V387.39z
	 M895.1,402.52v-11.56h0.9c0.9-0.89,0.9,2.66,0,5.34c0.9,0,1.8,0.89,2.7,0.89l2.7-0.89l-2.7-2.67c-0.9-2.66-1.8-7.11-0.9-5.34
	l5.41,3.56c0-1.77,0-2.66-0.9-4.46l2.7-1.76c0.9,1.76,1.8,4.45,1.8,8c1.8,0.89,4.5,1.77,7.21,0.89c1.8-0.89,3.6-0.89,5.4-0.89
	c-1.8,2.67-2.7,4.45-5.4,8.9c-2.71-0.89-5.41-2.66-8.11-3.56c-0.9,0.9-2.7,2.67-3.6,3.56c-0.91,2.67-2.71,4.46-4.51,3.56
	C896.9,405.2,896,403.42,895.1,402.52z M895.1,410.54c5.41,1.77,10.81,3.56,12.62,6.22c4.5,1.79,7.2,0,8.1-4.45
	c-4.51-5.32-9.01-8-9.01-6.22c0.91,1.79,3.61,3.56,5.41,5.35c-5.41,0-9.91-2.67-17.12-4.45V410.54z M895.1,423.88v-5.34
	c0.9,0,0.9,0,0.9-0.89c0,0,0-0.9-0.9-1.79v-5.34c1.8,1.77,2.7,4.46,3.6,6.22c0.9-0.89,1.81,2.69,2.7,6.24
	C899.6,423,896.9,423.88,895.1,423.88z"/>
<path class="st1" d="M505.88,821.82c-179.3,0-325.26-144.21-325.26-321.37c0-178.04,145.96-322.26,325.26-322.26v-12.45
	C319.38,165.74,168,315.29,168,500.45c0,184.28,151.37,333.82,337.87,333.82V821.82z M831.12,500.45
	c0,177.16-145.06,321.37-325.25,321.37v12.45c187.4,0,338.77-149.55,338.77-333.82c0-185.16-151.37-334.71-338.77-334.71v12.45
	C686.07,178.19,831.12,322.41,831.12,500.45z"/>
<path class="st1" d="M480.69,731.9v8.01c-1.8,0-3.6,0.89-4.51,1.79c-0.89,0.89-1.8,2.66-1.8,3.56c0,1.78,0.91,3.56,1.8,4.45
	c0.91,0.88,2.71,1.77,4.51,1.77v8.01c-1.8,0-3.6,0-5.4,1.78c-0.91,0.89-1.81,2.68-1.81,5.34c0,1.79,0.9,3.56,2.7,5.35
	c0.91,0.89,2.71,1.77,4.51,1.77v8.03c-5.4,0-9.91-0.91-13.51-1.8c-2.7-0.88-5.41-2.68-6.31-5.33c-1.8-1.79-2.7-4.46-2.7-8.03
	c0-2.66,0.9-5.34,1.8-7.11c1.8-1.79,4.51-3.55,7.21-4.45c-1.8-0.89-3.61-2.68-5.41-3.56c-0.9-1.77-1.8-4.45-1.8-6.23
	c0-4.46,1.8-8.03,6.3-10.69c3.61-1.79,8.11-2.68,13.52-2.68H480.69z M441.05,731.9v48.96h-15.32v-32.03
	c-2.7,1.76-5.4,3.55-8.11,4.45c-1.79,0.89-5.4,1.78-9,2.68v-10.69c5.4-1.79,9.91-3.56,12.61-5.35c2.71-2.68,5.41-4.44,7.21-8.01
	H441.05z M480.69,781.76v-8.03c1.8,0,3.6-0.89,5.41-1.77c1.8-1.79,1.8-3.56,1.8-5.35c0-2.66-0.9-4.45-1.8-5.34
	c-1.81-1.78-3.61-1.78-5.41-1.78v-8.01c1.8,0,3.6-0.9,4.51-1.77c1.8-0.89,1.8-2.68,1.8-3.56c0-1.79,0-3.56-1.8-4.45
	c-0.91-0.9-2.71-1.79-4.51-1.79v-8.01c7.21,0,12.61,1.77,16.21,3.57c3.61,2.66,5.41,5.33,5.41,9.79c0,1.78-0.9,3.56-2.7,6.23
	c-0.9,0.89-2.71,2.68-4.5,3.56c2.7,1.79,5.4,2.66,6.3,5.34c1.8,1.77,2.7,4.45,2.7,6.23c0,2.68-0.9,5.35-1.8,7.13
	c-1.8,1.79-3.6,3.55-5.41,4.45c-1.79,1.77-3.6,2.66-6.3,2.66c-3.6,0.91-6.31,0.91-9.01,0.91H480.69z M532.04,773.74v8.03
	c-4.5,0-8.1,0-10.81-0.91c-2.7-0.89-4.5-2.66-6.31-4.44c-1.8-1.77-2.7-3.56-3.6-6.24l15.32-1.77c0,1.77,0.9,3.56,1.8,4.45
	C529.34,773.74,530.24,773.74,532.04,773.74z M532.04,731.9v8.9c-2.7,0-4.5,0-5.4,1.79c-1.81,0.89-1.81,3.56-1.81,6.24
	c0,2.66,0,4.45,1.81,5.34c1.8,1.79,3.6,2.68,5.4,2.68v8h-4.5c-4.51,0-9.01-1.77-12.62-4.45c-3.6-2.68-5.4-7.11-5.4-11.56
	c0-3.56,0.9-6.24,2.7-8.91c1.81-2.68,4.51-4.44,7.21-6.24c3.6-0.89,7.21-1.78,11.71-1.78H532.04z M532.04,781.76v-8.03
	c2.7,0,4.51-0.89,5.41-3.56c1.8-1.77,1.8-4.45,2.7-9.79c-1.8,1.77-3.6,2.68-5.41,3.56c-0.89,0-1.8,0.89-2.7,0.89v-8
	c1.81,0,3.61-0.89,5.41-1.79c1.8-1.78,1.8-3.56,1.8-6.23c0-2.68,0-4.46-1.8-6.24c-1.8-1.79-3.6-1.79-5.41-1.79v-8.9
	c5.41,0,9.91,0.89,12.61,2.68c3.61,1.77,6.31,4.46,8.11,8.01c1.81,3.56,3.61,8,3.61,14.25c0,8.89-2.71,15.13-7.21,18.69
	C545.56,779.96,539.25,781.76,532.04,781.76z M585.21,731.9v8.01c-1.81,0-3.61,0.89-4.5,1.79c-0.91,0.89-1.81,2.66-1.81,3.56
	c0,1.78,0.9,3.56,1.81,4.45c0.89,0.88,2.69,1.77,4.5,1.77v8.01c-1.81,0-3.61,0-5.41,1.78c-0.9,0.89-1.8,2.68-1.8,5.34
	c0,1.79,0.9,3.56,1.8,5.35c1.8,0.89,3.6,1.77,5.41,1.77v8.03c-5.41,0-9.91-0.91-13.52-1.8c-2.7-0.88-5.4-2.68-7.2-5.33
	c-0.91-1.79-1.81-4.46-1.81-8.03c0-2.66,0.9-5.34,1.81-7.11c1.8-1.79,4.5-3.55,7.2-4.45c-2.7-0.89-4.5-2.68-5.4-3.56
	c-0.9-1.77-1.8-4.45-1.8-6.23c0-4.46,1.8-8.03,6.3-10.69c3.61-1.79,8.11-2.68,13.52-2.68H585.21z M585.21,781.76v-8.03
	c1.8,0,3.6-0.89,5.41-1.77c0.9-1.79,1.8-3.56,1.8-5.35c0-2.66-0.9-4.45-1.8-5.34c-1.81-1.78-3.61-1.78-5.41-1.78v-8.01
	c1.8,0,3.6-0.9,4.5-1.77c0.91-0.89,1.81-2.68,1.81-3.56c0-1.79-0.9-3.56-1.81-4.45c-0.9-0.9-2.7-1.79-4.5-1.79v-8.01
	c7.21,0,12.61,1.77,16.22,3.57c3.6,2.66,5.4,5.33,5.4,9.79c0,1.78-0.9,3.56-2.71,6.23c-0.9,0.89-2.69,2.68-4.5,3.56
	c2.71,1.79,4.5,2.66,6.31,5.34c1.8,1.77,2.7,4.45,2.7,6.23c0,2.68-0.9,5.35-2.7,7.13c-0.9,1.79-2.71,3.55-4.5,4.45
	c-1.81,1.77-3.61,2.66-7.22,2.66c-2.69,0.91-5.4,0.91-8.1,0.91H585.21z"/>
<path class="st1" d="M789.66,228.93c-2.7,1.77-5.4,4.45-8.11,5.34c2.71,0.9,5.41,2.67,8.11,2.67v5.34
	c-3.6-0.89-10.81-3.55-13.51-2.66c0,0-0.9,0.89-0.9,0c-0.9,0-4.51,2.66-4.51,2.66c-0.9,0.89-4.5,1.77-2.7,4.45
	c3.6,4.45,0.9,21.36,5.41,25.81c4.5,4.45,9.91,3.56,10.81,6.24c-2.71,2.66-8.11,4.45-18.92,3.56c-3.61-6.24-4.51-8.91-5.41-12.46
	c1.8-5.34,4.51-10.69,5.41-16.02c0.9-3.56,3.6-9.8-1.8-7.12c-6.31,3.56-9.91,6.24-12.62,8.01c-8.11,2.67-11.71-0.89-12.61-0.89
	c-4.5-2.67-10.81-8.9-9.92-8.9c0.91,0,0.91-0.9,0.91-0.9c1.8,1.8,5.41,3.56,10.81,5.35c12.61,0.89,28.82-13.35,28.82-12.46
	c-1.8-1.77-3.6-1.77-5.4-2.67h-0.91c-1.8-2.66-3.6-7.11-3.6-11.57c0.9-1.76,0.9-1.76,2.7-1.76c0,1.76,1.81,3.55,1.81,5.32
	c0.9,0.9,7.2,4.45,11.71,5.35c4.5-3.56,10.81-7.12,14.41-9.79V228.93z M797.77,223.6c-1.8,1.79-4.51,3.56-8.11,5.34v-7.11l0.9-0.89
	c10.81-8.91,18.92-17.81,18.92-18.7c0.91,1.77,1.8,1.77,1.8,2.66c1.81,2.67,1.81,6.24,3.61,9.8c-3.61,3.56-6.31,2.67-7.21,2.67
	c-1.8,0.89-1.8,1.76-3.6,1.76c-2.71,1.8-4.51,3.56-5.41,4.46c0.9,2.66-0.9,8.9,0.9,10.67c-0.9,3.56-3.6,8.01-6.31,9.79
	c0,0-1.8-0.89-3.6-1.77v-5.34h1.8c0.91-0.89,3.61-2.67,4.51-4.45C796.87,229.82,797.77,226.26,797.77,223.6z"/>
<path class="st1" d="M91.46,395.4c0.9,0-0.9,0.89,3.6,1.77c3.61-0.89,9.91,0.9,11.72,2.68c0,4.45-4.51,5.35,0,5.35
	c3.6,0,5.4-2.67,5.4-2.67l-0.9-5.35l0.9-6.21l3.6,3.55c0,0-1.79,3.56-1.79,5.34c0,0.89,5.4,0,7.2,1.79c-0.9,0-0.9,2.66-0.9,3.56
	c0,0-1.8,1.77-1.8,3.56c2.7,0,6.3,1.76,6.3,1.76l1.81,2.69c0,0,0.89-1.79,1.8-1.79h2.7l1.8-5.34c0,0-0.9,0-1.8-0.89
	c-1.8-0.9-1.8-1.79-1.8-1.79l4.5,0.89c0,0,2.71,13.36,0,20.47c-2.7,4.45,0,2.67,0,3.56c0.9,0,2.71-1.77,4.51-2.68v-9.79
	c-0.91-4.45-1.8-8.9-0.91-10.67h0.91v-7.12l-0.91-0.9v-5.32l0.91,1.77v-9.79c0-1.79-0.91-4.45-0.91-8.01
	c-0.89-3.56-7.2,3.56-6.3,5.34c1.8,1.77,2.7,8.01,2.7,8.01v7.11l-10.81-2.66c-0.9-1.77,0-0.9-2.7-1.77l-2.7,1.77l-0.9-0.9v-1.76
	c0,0,1.8-2.67,4.5-1.79c0.9,0,0,0.9,0,1.79c1.8,0.89,1.8,0,4.5-0.89c1.8-0.9,3.61,4.44,5.41,3.55c-1.8-5.34-0.9-2.66-3.61-7.11
	l-2.7-3.57l-0.9-2.66c0-0.89,0-1.79-3.6-2.67c-0.9,0.89-2.7,1.79-0.9,3.56v1.77c-0.9,0.9-4.51,1.79-4.51,4.45c-1.8,0-4.5-1.77-3.6-8
	c0-4.46-2.7-3.56-2.7-3.56s-6.31-1.77-7.22,0c0,2.66,1.81,5.34,1.81,5.34l5.41,7.12l-0.91,5.34c-1.79,0-1.79-1.77-2.7-2.66
	C100.47,390.07,98.67,387.38,91.46,395.4z M138.3,405.19v-7.12h1.8l-1.8-4.45v-9.79c1.8,8.01,4.5,13.34,5.4,11.56l3.61-2.68v6.24
	c-0.9,0-0.9,0.89-1.81,0.89h1.81v7.12h-1.81v2.67c0.91,1.77,0.91,2.66,1.81,3.56v8c-0.9-4.45-5.41-16.01-5.41-15.12
	C141.89,406.08,140.1,405.19,138.3,405.19z M138.3,425.65c1.8,0,2.7-0.89,2.7-0.89s1.8-1.77-0.9-4.45c0,0-0.9-1.79-1.8-4.45V425.65z
	 M147.3,413.2v8.89c0,3.56,6.3,2.67,7.2-1.77c1.8-3.56,0-2.66-0.9-4.45c-0.9-2.66-0.9-4.45,0-7.11c0,0,18.02,3.55,24.33,3.55
	c0.9-1.79,1.8-1.79-4.51-4.45c-3.6-1.77-18.92-6.22-20.71-6.22c0,0-0.9-1.79,1.8-8.01c0-3.55-4.5-2.66-4.5-2.66l-2.7,1.76v6.24
	c0.89,0,0.89,0.89,0.89,1.77c0,0-0.89,0-0.89-0.89v7.12c0.89,0.89,1.8,0.89,1.8,0.89c0.9,4.45,0.9,7.12,0.9,8.01
	c-0.9,1.79-0.9,2.66-0.9,2.66C148.19,416.75,147.3,414.98,147.3,413.2z"/>
<path class="st1" d="M595.98,122.1v2.67h-9.91c-1.8,0-2.71,0.89-3.6,0c-4.51-2.67-5.41-5.34-4.51-5.34c1.81,0,3.6,1.79,5.4,1.79
	C589.67,122.1,593.28,122.1,595.98,122.1z M595.98,134.56c-0.9-0.89-1.8-2.66-1.8-4.45c0.9-1.77,0.9-2.67,1.8-2.67V134.56z
	 M595.98,151.47v24.92c-0.9,0-4.5-1.79-4.5-2.67c-1.81-1.77-1.81-1.77-2.71-3.56c0-1.76,0-1.76,0.9-2.66
	c0.91-2.66,1.81-5.34,2.71-8.01c-4.51,1.79-8.11,3.56-9.02,5.35c-1.8,0.89-4.5,1.77-4.5,1.77c-1.8,0-4.5-5.34-5.41-6.24
	c-0.9-1.77,0-2.66,0-4.45c4.51,2.67,7.22,4.45,8.11,3.56c4.51-1.77,9.02-2.67,12.62-3.56C595.08,154.14,595.98,153.26,595.98,151.47
	z M595.98,143.47c-2.7,0.89-3.6,1.77-3.6,2.67c1.8-0.9,2.7-0.9,3.6-1.79v4.44c-1.8,0.9-2.7,1.79-4.5,2.67
	c-0.9,0-3.61-0.89-3.61-1.77c-0.9-2.66-1.8-2.66-1.8-6.22c1.8,0,3.6,0.89,4.51,0.89c1.8-0.89,3.6-1.77,4.5-2.67
	c-0.9-1.77-4.5,0.9-1.8-5.34c1.8,0,2.7,0,2.7-0.89V143.47z M608.6,106.09v10.69c0,0.89-0.91,1.77-0.91,1.77h0.91v5.32
	c-2.71,0-5.42,0-9.02,0.9h-3.6v-2.67c2.71,0,4.51-0.88,7.2-0.88v-2.67l0.91-0.89c0-1.79,1.8-4.45,2.7-6.24h-1.8
	c-0.9,0.89,0,2.67-0.9,2.67c-2.7,0.89-4.51,0.89-5.4-3.56v-3.56c0-1.79,1.8-1.79,2.7-0.89l1.79,1.77c-0.89-0.89,4.51,2.67,4.51,0
	C607.68,106.98,608.6,106.98,608.6,106.09z M595.98,173.72h0.9c0,0.89,0,1.79-0.9,1.79V173.72z M608.6,167.49
	c-0.91-0.89-2.71-0.89-3.61-1.77c1.8-1.79,2.7-2.67,3.61-5.35V167.49z M595.98,144.36v4.44c0.9,0,0.9-0.88,1.8-0.88
	c-0.9,0.88-0.9,2.66-1.8,3.55v21.36c0-0.89,0.9-1.77,0.9-2.67c0.9-4.44,1.81-8.89,2.7-11.56c3.6-1.79,8.11-0.89,9.02,0v-3.56
	c-3.61-0.89-8.11,0-8.11,0c0.9-1.77,2.69-7.11,3.6-8.89c0.9-0.9,2.7-0.9,4.51-1.79v-2.67h-3.61c0.9-3.56,1.8-6.22,3.61-8.9v-4.45
	c-0.91,0-1.81,0.89-1.81,0.89c-2.7,5.34-3.61,8.01-5.4,13.36C599.58,143.47,597.78,144.36,595.98,144.36z M596.88,127.44
	c2.7,2.67,4.51,4.46,5.41,6.24c0,0.89,0,1.79-1.8,2.67c-0.91,0.89-2.71,0.89-1.8,1.77c0.89,0,1.8,0,2.7,0.9
	c0,0.89-0.9,2.66-2.7,3.56c-0.91,0-1.81,0-2.71,0.89v-8.01c0.9,0,0.9,0,0.9-0.9h-0.9v-7.12H596.88z M608.6,116.78v-10.69
	c3.6-10.67,8.1-15.13,7.2-13.35c0,0,3.6,3.56,1.8,7.11c-4.5,0.89-7.2,13.36-8.11,12.46C609.48,113.21,608.6,115.88,608.6,116.78z
	 M608.6,123.87c3.6,0,6.3,0,9.91,0.9c0.89,0.89-1.81,0.89-0.91,1.77c1.8-0.89,6.31-0.89,10.81,0.89c0.9,0,1.8-0.89,3.61-2.66
	c0-1.79,0.9-2.67-1.81-5.34c-1.8,0-1.8,0-3.6-0.89c-0.9,0.89-0.9,0.89-1.8,1.77c-5.41,0-9.91,0.9-14.41,0c1.8-0.89,5.4-2.66,9-3.55
	c4.51-0.9,9.01-2.67,14.42-3.56c0.9-2.67,1.8-4.46,1.8-7.12c-1.8-0.9-3.6-1.79-5.41-2.67c-3.6,1.77-6.3,1.77-9.91,2.67
	c-2.7,0-4.5-1.79-6.31-1.79c0,1.79,0,5.35,0.91,6.24c3.61,1.77,3.61,0.89,6.31-1.79c1.8-0.89,5.4-2.66,7.2-3.56
	c2.71,0,0.9,1.79,0.9,2.67c-2.7,2.67-9.01,5.35-14.41,7.12c-1.8,1.79-4.5,2.67-6.3,3.56V123.87z M608.6,155.03
	c1.8,0.89,4.5,1.77,5.38,4.45c2.71,5.35-0.89,8.01-0.89,8.01h-4.5V155.03z M608.6,128.34c0.89-1.79,2.7-1.79,3.6-0.9
	c0,0.9,0.9,1.79,0.9,2.67c0,2.67,0,4.45-0.9,8.91c0.9,0.89,0,2.66,0,3.56c-0.9,0.89-2.71,1.77-3.6,1.77v-2.67
	c0-0.89,0.89-0.89,0.89-0.89c0.91-1.77,0.91-3.56,1.81-5.34v-5.35h-0.9c-0.91,0-0.91,0.89-1.8,0.89v1.79V128.34z"/>
<path class="st1" d="M394.16,122.1c-3.6-4.44-5.41-5.32-5.41-5.32l-4.5,0.89c1.8,5.32,4.5,4.44,4.5,9.77
	c1.81,1.79,4.51,4.46,4.51,4.46h0.9V122.1z M394.16,106.98v9.8c-0.9,0-1.8,0-2.71,0.89c0-1.79-0.89-2.67,0.91-3.56
	c0-2.67-1.8-5.35,0-7.12C392.36,106.98,394.16,106.98,394.16,106.98z M394.16,164.83c-1.8,3.56-3.6,7.11-3.6,8.89
	c0.89,2.67,2.7,0.89,3.6-1.77v4.45c-0.9,0.89-0.9,1.77-0.9,1.77s-1.81,2.67-3.61,1.79c-2.7-4.45,0.91-14.24,4.51-21.36V164.83z
	 M394.16,131.9c0.9,0,4.5-1.79,1.8-8.02c-0.9-0.89-1.8-1.77-1.8-1.77V131.9z M411.28,155.03h-0.91c0,0.89,0.91,2.68,0.91,3.56v0.89
	C411.27,159.48,411.27,155.03,411.28,155.03z M411.28,144.36c-1.81-0.89-4.5,0-6.31,0c0,5.34-0.9,10.67,0,16.91v5.34
	c-0.9,0.89,0,2.67,0,4.45c0.9,2.66,1.81,3.55,4.5,4.45l1.81-1.79v-9.79l-0.91,0.9c-1.79-5.35-0.9-9.8-1.79-16.91
	c0.89-0.89,1.79,0,2.7,0.88C411.27,148.79,411.27,144.36,411.28,144.36z M396.86,158.59c0,0-1.8,2.67-2.7,6.24v-6.24
	c2.7-5.34,5.4-9.8,5.4-9.8l3.61-16.01c-2.7,0.89-4.51,0-3.61-2.67c0.91-3.56,3.61-18.68,2.71-17.8c-0.9,0-1.8,1.79-2.71,1.79
	c0,4.45,0,4.45-3.6,5.34c-0.9-0.89,0-0.89,0-1.77c-0.9,0-1.8,0-1.8-0.89v-9.8c1.8,1.77,1.8,3.56,3.6,3.56
	c1.8-1.79,4.51-2.67,4.51-3.56c0-2.67,0.9-4.45-1.8-8c0.9-3.56,1.8-7.12,4.5-10.69c1.81,0.89,3.61,1.77,6.31,6.22v6.22
	c-0.91,0.89,0,0.89,0,1.79v4.45c-0.91,0.89-1.81,0.89-2.7,1.77c0,2.67-0.91,6.24,0,6.24c0.89-0.89,1.79-1.77,2.7-2.67v8.91
	c-1.81,0-2.7,0-4.5-0.9c-0.91,1.77-0.91,2.66,0,4.45c0.89-0.9,0.89-1.79,0.89-2.67c0.91,0,2.7,0.89,3.61,1.77
	c-2.7,5.35-3.61,10.69-4.5,15.15l4.5-5.35v4.45c-2.7,1.79-5.41,5.35-8.11,8.02c-0.9,7.11-3.61,11.56-5.41,19.57
	c-0.9,4.44-2.7,8-3.6,10.67v-4.45C395.96,166.6,396.86,158.59,396.86,158.59z M411.27,98.98c0-0.91,0.9-1.79,0.9-3.56l-0.9-0.9
	C411.27,94.51,411.27,98.98,411.27,98.98z M411.27,121.22v-8.91c1.8-2.66,1.8-4.45,3.6-7.12c0,0-1.8,0.9-3.6,1.79v-4.45
	c1.8-2.67,4.5-3.55,6.3-4.46c3.61,0,4.51,0.91,6.31,3.56c-4.51,7.12-8.11,13.36-11.71,19.6
	C412.18,121.22,411.28,121.22,411.27,121.22z M411.27,148.79v-4.44h0.9c0.9-2.67,3.6-5.34,3.6-9.8c-1.8,0.9-2.7,1.79-4.5,3.56v-4.45
	c1.8-1.77,2.7-1.77,4.5-3.56c2.7,0.89,4.5,2.67,5.41,5.35c0,2.66-2.71,7.12-4.5,9.79c-0.91,0.9-2.71,1.79-4.51,4.45
	C412.18,148.79,411.27,148.79,411.27,148.79z M411.27,173.71v-9.79c0.9-1.77,1.8-2.66,1.8-3.56c0-0.89-0.9-0.89-1.8-0.89v-4.45
	c5.41-0.89,7.2-2.67,9-5.34c0.91,0,4.51,1.77,5.41,3.56c-1.8,1.77-4.5,3.55-7.21,4.45c1.8,1.77,6.31,1.77,9.91,2.66
	c0.91,4.46-6.3,7.12-6.3,6.24c-0.9-1.77-2.71-3.56-6.31-6.24c-0.9,1.79-2.7,4.46-3.6,8.02
	C412.18,171.94,412.18,172.83,411.27,173.71z"/>
<path class="st1" d="M238.29,224.48c1.8,1.77,2.71,3.56,3.6,4.45v12.47c-1.8-2.67-3.6-4.46-5.4-6.24c-0.9,0.89-0.9,4.45-0.9,6.24
	c0.9,0.88,0,2.65-0.9,3.56c-1.8,1.76-5.41,0.89-7.21,0c-3.6,0-5.4-1.8-6.3-2.69c-0.9-1.77,5.4,0,7.21-2.66c0,0,1.79-1.77,2.69-10.69
	c-15.3-18.68-21.61-27.58-21.61-31.15c0-1.79,11.72-0.89,13.52,1.77c1.8,5.35,0.9,6.24,11.71,19.58c0.9-2.66,4.5-8.9,7.2-13.35v8
	C241,217.37,239.19,220.93,238.29,224.48z M241.88,228.93l0.91,1.79c0.9-2.67,0.9-5.34,0-8.01l1.8-1.77c0-7.14,2.7-13.36,0.9-12.46
	c-1.8,1.77-2.7,3.56-3.61,5.32v-8c0.91-0.89,1.81-1.79,2.71-2.67l1.8-2.67c0.9,0,2.7,0,4.51,0.9l0.9,1.77
	c-0.9,5.35-1.8,8.01-2.71,16.91l1.81,2.67c-0.9,1.77-4.51,10.67-3.61,12.46c5.41,6.24,10.81,11.56,13.52,15.12
	c1.8,0,7.2,9.8,6.3,12.46c0,2.67-4.5-0.89-11.71-5.34v-2.67c-4.5-5.34-9.01-8.89-13.52-13.34V228.93z"/>
<path class="st1" d="M505.89,924.17c-236.95,0-429.77-189.61-429.77-423.73c0-235.01,192.81-424.63,429.77-424.63v-6.21
	c-240.56,0-436.08,193.16-436.08,430.85S265.33,931.3,505.89,931.3V924.17z M935.66,500.44c0,234.12-192.81,423.73-429.77,423.73
	v7.13c241.45,0,436.08-193.18,436.08-430.86S747.35,69.59,505.89,69.59v6.21C742.85,75.8,935.66,265.43,935.66,500.44z"/>
<path class="st1" d="M505.9,937.54c-244.16,0-442.38-195.84-442.38-437.09c0-241.25,198.21-437.1,442.38-437.1V50
	C254.52,50,50,251.19,50,500.45C50,748.81,254.52,950,505.9,950V937.54z M948.27,500.45c0,241.25-197.31,437.09-442.38,437.09V950
	c251.36,0,455.9-201.19,455.9-449.55C961.8,251.19,757.26,50,505.9,50v13.35C750.96,63.35,948.27,259.2,948.27,500.45z"/>
<path class="st1" d="M389.66,303.72c-12.61-8.89-28.83-1.77-29.73,0c0-0.89-8.11,5.34-5.41,17.8c3.61,35.62-6.3,132.64-11.71,170.02
	c-0.9,8.91-2.7,17.81-4.51,27.6c-8.1,42.72-21.61,93.46-23.41,99.7c-17.13,55.19-34.24,86.35-41.45,91.69
	c29.73,3.56,63.06-63.2,73.89-84.56c1.8-3.56,3.6-6.24,5.4-9.8c0-0.89,0-0.89,0.91-1.78c10.81-24.93,27.92-78.34,36.03-99.69V303.72
	z M389.66,212.03v7.11c-5.4-2.66-9.91-2.66-9.91-2.66S383.35,213.79,389.66,212.03z M389.66,721.23c-5.4,3.56-11.71,6.24-18.01,8.01
	c-1.81,0-19.83,8-46.85,7.11c-30.64-2.68-46.87-21.36-48.67-22.25c57.66,6.24,89.21-32.05,100.02-48.07c0.9-0.88,1.8-1.79,2.7-3.56
	c2.7-4.45,6.31-8.89,8.11-13.35c0.9-1.78,1.8-3.56,2.7-4.45V721.23z M476.16,430.13c-34.24-4.46-67.57-14.25-71.17-57.87
	c-0.9-8,0-16.03-0.9-24.04c0-11.56-0.91-24.03-1.8-25.82c-2.71-9.79-7.21-16.02-12.62-18.69v210.99v-0.9
	c14.42-34.72,34.24-47.19,41.44-51.63c0.9-0.9,2.71-1.78,3.61-2.68c13.51-8.9,28.83-13.35,41.44-16.03
	C476.16,443.47,476.16,430.13,476.16,430.13z M476.16,329.53v88.14c-15.31-5.35-32.43-16.03-42.34-38.28
	c-0.9-2.68-7.21-12.48-5.41-31.17c0.9-7.11,2.7-13.34,3.6-20.46c7.21-77.46-25.22-101.49-42.34-108.62v-7.11
	c9.91-2.68,27.93-2.68,53.16,15.13c24.32,17.82,27.02,50.74,27.92,61.43v6.24C470.75,301.04,469.85,317.07,476.16,329.53z
	 M476.16,666.92h-1.81c-0.89,0-20.71,6.24-27.92,11.58c-0.9,0.9-15.32,7.11-32.44,24.04c-0.9,0-10.81,10.68-24.32,18.69v-76.56
	c4.51-8.89,9.01-19.58,12.62-32.05c0.89-1.76,8.1-23.14,11.7-40.94l2.71-10.69c1.8-9.78,7.21-30.25,13.51-48.06
	c0.9-0.9,6.31-14.25,12.62-23.15c1.8-2.66,3.6-5.35,6.3-8c5.41-5.35,14.42-14.24,27.03-19.59v80.12
	c-5.41,6.23-8.11,11.56-8.11,11.56s-13.51,19.59-18.92,66.77c0,0.89,9.01-9.79,27.03-16.91
	C476.16,603.72,476.16,666.92,476.16,666.92z M476.16,443.47v-13.34c5.4,0.89,10.81,1.78,16.22,1.78c4.5,0.89,17.11,3.56,7.21,8
	c-0.91,0.89-1.81,0.89-2.71,0.89h-0.9C492.38,440.8,485.17,441.7,476.16,443.47z M505.89,348.22v73.89c-3.6,0-15.32,0-29.73-4.44
	v-88.14C481.56,339.33,489.68,347.34,505.89,348.22z M476.16,462.18c8.11-3.56,18.02-6.24,28.83-6.24h0.9v70.33
	c-13.51,1.78-23.42,8.9-29.73,16.03C476.16,542.3,476.16,462.18,476.16,462.18z M505.89,663.37h-0.9c-4.51,0-15.31,0-28.83,3.55
	v-63.2c8.11-3.56,18.02-6.24,28.83-7.13h0.9V663.37z M535.62,430.13v13.34c-9.01-1.78-16.22-2.68-19.82-2.68h-0.9
	c-0.9,0-1.81,0-3.61-0.89c-9-4.44,3.61-7.11,8.11-8C524.81,431.91,530.22,431.02,535.62,430.13z M535.62,329.53v88.14
	c-14.42,4.44-26.13,4.44-29.73,4.44v-73.89C522.11,347.34,530.22,339.33,535.62,329.53z M505.89,455.94h0.9
	c10.81,0,20.72,2.68,28.83,6.24v80.12c-6.31-7.13-16.22-14.25-29.73-16.03V455.94z M535.62,666.92
	c-13.51-3.55-24.33-3.55-28.83-3.55h-0.9V596.6h0.9c10.81,0.89,20.72,3.56,28.83,7.13V666.92z M622.12,303.72
	c-5.41,3.56-9.91,8.9-12.61,18.69c-0.9,1.79-1.81,14.25-1.81,25.82c-0.9,8.01,0,16.04-0.9,24.04c-4.5,43.62-36.93,53.41-71.17,57.87
	v13.34c12.62,2.68,27.93,7.13,41.45,16.03c0.89,0.9,2.7,1.78,3.6,2.68c6.31,4.44,26.12,16.91,41.44,51.63v0.9
	C622.12,514.71,622.12,303.72,622.12,303.72z M622.12,212.03v7.11c-17.12,7.13-50.45,31.15-42.34,108.62
	c0.9,7.13,2.7,13.35,2.7,20.46c2.7,18.69-3.6,28.49-4.51,31.17c-9.91,22.25-27.93,32.93-42.34,38.28v-88.14
	c6.3-12.46,5.41-28.49,5.41-34.71v-6.24c0.89-10.69,2.7-43.62,27.93-61.43C594.19,209.35,612.21,209.35,622.12,212.03z
	 M622.12,721.23c-13.51-8.01-23.42-18.69-24.33-18.69c-17.11-16.93-31.53-23.14-32.43-24.04c-7.21-5.34-27.02-11.58-27.93-11.58
	h-1.8v-63.2c18.02,7.13,27.03,17.8,27.03,16.91c-5.41-47.18-18.92-66.77-18.92-66.77s-2.7-5.34-8.11-11.56v-80.12
	c12.62,5.35,21.62,14.24,27.03,19.59c1.8,2.65,4.51,5.34,6.31,8c6.3,8.9,11.71,22.25,11.71,23.15c7.2,17.8,11.71,38.28,14.41,48.06
	c0.9,3.56,1.81,7.13,2.7,10.69c3.61,17.8,10.82,39.18,10.82,40.94c4.5,12.48,9,23.16,13.51,32.05V721.23z M622.12,219.14v-7.11
	c6.3,1.76,9.01,4.45,9.01,4.45S627.53,216.48,622.12,219.14z M622.12,514.71c8.11,21.35,25.22,74.76,36.04,99.69
	c0,0.89,0.9,0.89,0.9,1.78c1.8,3.56,3.6,6.24,5.4,9.8c10.81,21.36,44.15,88.12,73.88,84.56c-7.21-5.34-24.33-36.49-41.45-91.69
	c-1.8-6.24-16.21-56.98-23.42-99.7c-1.8-9.79-3.6-18.69-4.5-27.6c-5.41-37.38-15.32-134.41-11.71-170.02
	c2.7-12.46-5.41-18.69-5.41-17.8c-0.9-1.77-17.12-8.89-29.73,0C622.12,303.72,622.12,514.71,622.12,514.71z M735.65,714.1
	c-1.8,0.89-18.02,19.58-48.65,22.25c-27.03,0.89-45.05-7.11-46.85-7.11c-6.31-1.77-12.61-4.45-18.02-8.01v-76.56
	c0.9,0.89,1.8,2.68,1.8,4.45c2.7,4.46,6.31,8.9,9.01,13.35c0.9,1.78,1.8,2.69,2.71,3.56C646.44,682.05,677.97,720.34,735.65,714.1z"
	/>
<path class="st1" d="M148.2,562.76l1.8,10.69l-11.71,1.77l1.8,11.58l11.72-1.8l0.9,10.69l-33.33,5.34l-1.8-11.57l13.51-1.77
	l-0.89-11.56l-14.42,1.77l-0.9-10.69L148.2,562.76z"/>
<path class="st1" d="M159.02,620.62l2.71,10.69l-19.83,5.32c-1.8,0-3.6,0.9-5.4,0c-1.8,0-3.61,0-5.41-1.76
	c-1.8-0.9-2.7-1.8-3.6-3.56c-1.8-1.8-2.7-3.56-2.7-6.24c-0.9-1.77-0.9-3.56-0.9-6.22c-0.91-1.79-0.91-3.56,0-5.35
	c0-0.89,0.9-2.66,1.8-3.56c0.9-1.76,1.8-2.66,3.6-3.55c1.8-0.9,3.6-1.77,5.41-2.67l18.91-4.45l2.7,9.79l-19.81,5.34
	c-1.8,0.9-3.61,1.79-3.61,2.67c-0.9,1.79-1.8,2.67-0.9,4.45c0,1.79,0.9,3.56,2.71,4.45c0.9,0.9,2.7,0.9,4.5,0L159.02,620.62z"/>
<path class="st1" d="M143.71,663.37l-4.51-11.57h-5.4l-3.6-9.8h23.41v8.91h-6.31l2.71,7.11l3.6-2.66v12.45l-10.81,9.8l-3.61-10.68
	L143.71,663.37z M153.62,641.99h12.61l4.51,10.69l-17.12,15.12v-12.45l6.3-4.45h-6.3C153.62,650.91,153.62,641.99,153.62,641.99z"/>
<path class="st1" d="M175.24,663.37l13.51,26.69l-5.4,3.55l-27.02-8.01l9.01,17.8l-6.31,3.57l-15.3-29.37l6.3-3.56l27.02,8
	l-8.11-15.12L175.24,663.37z"/>
<path class="st1" d="M190.55,693.63l6.31,8.9l-9.92,7.12l6.31,9.79l9.91-7.12l6.31,8.91l-27.92,20.46l-6.31-8.9l11.71-8.9l-7.21-8.9
	l-10.8,8.01l-6.31-8.9C162.62,714.1,190.55,693.63,190.55,693.63z"/>
<path class="st1" d="M197.78,734.58c3.6-3.56,7.21-5.32,11.71-5.32v10.66c-1.8,0-3.6,0.9-5.4,2.68c-2.71,2.67-3.6,4.45-3.6,6.24
	c-0.91,1.76,0,4.45,0.89,5.34c1.81,1.79,3.61,2.67,5.41,2.67h2.7v9.79c-1.8,0-3.6,0-5.4-0.89c-2.71-0.9-5.41-2.67-8.11-5.35
	c-2.71-3.55-4.51-6.22-4.51-8.89c-0.89-2.67-0.89-5.35,0-8.91C192.39,739.92,194.19,737.25,197.78,734.58z M209.49,729.26h0.91
	c4.5,0,8.1,2.65,11.71,7.1c4.5,4.46,5.4,8.91,5.4,13.36s-2.7,8-6.3,11.56c-3.61,2.67-6.31,4.46-9.01,5.35h-2.71v-9.79
	c0.91-0.89,2.71-1.77,4.51-3.56c2.7-1.77,3.6-4.45,4.5-6.24c0-1.77-0.9-3.56-1.8-5.34c-1.8-1.79-3.6-2.66-5.4-2.66
	c-0.9,0-1.81,0-1.81,0.87V729.26z"/>
<path class="st1" d="M235.58,752.38l7.21,7.12l-4.51,23.13l13.5-14.23l7.21,7.12l-23.41,24.92l-7.21-7.12l3.61-22.25l-13.52,13.36
	l-7.2-7.14L235.58,752.38z"/>
<path class="st1" d="M262.62,805.79l4.5-5.32l12.62,9.77l-9.01,11.57c-3.61,0-7.21-0.89-9.01-1.77c-2.71-0.89-5.41-1.79-8.11-4.45
	c-2.7-1.79-5.41-4.46-6.31-7.12c-0.9-3.56-0.9-6.22-0.9-8.9c0.9-3.56,1.8-6.22,4.51-8.9c1.8-3.56,4.5-5.35,7.2-6.22
	c3.61-1.79,6.31-1.79,9.91-0.9c1.8,0,5.41,1.77,8.11,4.45c2.7,1.79,5.41,4.45,6.31,6.24c0.9,1.77,0.9,3.56,1.8,5.34
	c0,1.79-0.9,3.55-1.8,6.22l-9.01-5.32c0.9-0.9,0.9-2.67,0-3.56c0-0.9-0.9-2.67-1.8-3.56c-1.81-0.9-4.51-1.79-6.31-0.9
	c-1.8,0-4.5,1.79-6.31,4.46c-1.8,2.66-3.6,5.34-2.7,8c0,1.77,0.9,3.56,2.7,5.34c0.9,0.89,1.81,0.89,2.71,1.79
	c0.9,0,2.7,0.89,4.5,0.89l1.8-2.67L262.62,805.79z"/>
<path class="st1" d="M321.21,857.41l-0.9-0.89l0.9-2.67V857.41z M321.21,850.3l-9.91-5.34l-4.51,4.44l-9.9-5.34l24.31-21.35v12.45
	l-4.51,4.45l4.51,2.67V850.3z M321.21,857.41v-15.12l1.8,0.89l2.71-12.45l-4.51,4.44v-12.45l3.6-2.67l9.91,5.34l-4.5,36.48
	L321.21,857.41z"/>
<path class="st1" d="M352.73,858.31l2.7-7.12l15.3,6.24l-5.4,14.25c-3.6,0.89-6.3,0.89-9.01,0.89c-2.7,0-5.4-0.89-9.01-2.67
	c-3.6-0.89-6.3-3.56-8.1-5.34c-1.81-2.67-2.71-5.35-2.71-8.01c-0.9-3.55,0-6.22,0.9-9.79c1.81-3.56,3.61-6.24,6.31-8.91
	c1.8-1.77,5.41-2.66,8.11-2.66c2.7-0.9,6.3,0,9.91,1.77c3.6,0.89,5.4,2.67,7.2,4.45c1.8,0.9,2.71,2.67,2.71,4.46
	c0.9,1.77,0.9,3.55,0.9,6.21l-9.91-1.76c0-1.79,0-2.67-0.9-4.45c-0.9-0.9-1.8-1.79-3.61-1.79c-1.8-0.89-3.6-0.89-5.4,0
	c-2.7,0.89-3.6,2.67-5.41,6.24c-0.9,3.55-1.8,6.23-0.9,8.89c0.9,1.79,2.71,2.67,4.51,4.45h3.6c0.9,0.9,2.71,0,3.6,0l1.81-2.66
	L352.73,858.31z"/>
<path class="st1" d="M369.87,877.9l9.91-33.82l11.71,3.56v7.12l-3.61-0.91l-1.8,7.12l3.61,0.9c0.9,0.89,0.9,0.89,1.8,0.89v21.36
	h-0.9l-2.71-11.56c0-1.79,0-2.67-0.89-3.56c-0.91-0.9-0.91-0.9-1.8-1.79h-0.9l-4.51,13.35L369.87,877.9z M391.48,847.64l5.41,1.76
	c2.7,0.9,5.4,1.79,6.3,2.67c1.81,1.77,2.7,2.69,3.61,4.45v6.24c-0.91,1.77-1.8,3.56-2.71,4.45c-1.8,0.89-2.7,1.79-4.5,1.79
	c-0.9,0.89-1.8,0.89-3.61,0.89c0.91,0.89,1.81,0.89,1.81,1.77c0.9,0,0.9,0.9,0.9,2.67c0.9,0.88,0.9,1.79,0.9,1.79l2.7,11.56
	l-10.81-3.56v-21.36h1.8c0,0,0.9,0,1.81-0.89c0,0,0.89-0.9,0.89-1.79v-2.67c-0.89-0.89-1.8-1.77-3.6-1.77l-0.9-0.88V847.64z"/>
<path class="st1" d="M413.07,854.76l9.91,1.77l-7.2,34.71l-9.92-2.67L413.07,854.76z"/>
<path class="st1" d="M448.23,882.34l9.01,4.45c-0.9,2.67-2.7,4.45-4.51,6.24c-0.9,0.89-3.6,2.67-5.4,2.67
	c-1.81,0.89-4.51,0.89-7.21,0c-3.6,0-7.21-0.9-9.01-2.67c-1.8-1.79-3.61-3.56-5.41-7.12c-0.9-2.67-1.79-6.22-0.9-10.68
	c0.9-5.32,3.61-9.79,6.31-12.45c3.6-2.68,8.11-3.56,13.5-2.68c4.51,0.89,8.11,1.77,9.92,4.45c1.8,1.79,3.6,5.35,4.5,8.91l-9.91,0.89
	c0-1.79,0-2.67-0.9-2.67c0-0.89-0.9-1.77-1.8-2.67c-0.91,0-1.81-0.89-2.71-0.89c-1.8,0-4.5,0-5.4,1.79
	c-1.8,1.77-2.71,3.56-2.71,7.11c-0.9,3.56-0.9,6.22,0,8.01c0.91,1.77,2.71,2.66,4.51,2.66c2.7,0.9,3.6,0,5.4-0.89
	C446.43,885.9,447.33,884.12,448.23,882.34z"/>
<path class="st1" d="M485.15,865.44h9.91l-0.9,21.36c0,1.77-0.9,3.56-1.8,5.34c-0.9,1.79-1.81,3.56-2.7,4.46
	c-1.81,1.76-3.61,2.66-4.51,2.66c-2.7,0.89-4.51,0.89-8.11,0.89c-0.9,0-2.71,0-5.4-0.89c-1.81,0-3.61-0.9-4.51-1.77
	c-0.9-0.89-2.7-1.79-3.6-2.67c-0.91-1.77-1.81-3.56-1.81-4.45c0-2.67-0.89-4.45-0.89-6.24l1.79-20.46l10.82,0.89l-1.8,21.36
	c0,1.77,0,2.66,0.89,4.45c1.8,0.89,2.71,1.77,4.51,1.77c1.8,0,3.6-0.89,4.5-1.77c0.91-0.89,1.81-1.79,1.81-4.45L485.15,865.44z"/>
<path class="st1" d="M498.68,866.33h10.81l0.9,25.81h16.22l0.9,8.01l-27.02,0.88L498.68,866.33z"/>
<path class="st1" d="M524.81,865.44l32.42-1.77v8.01l-10.81,0.89l1.81,26.69h-9.91l-1.81-25.81l-10.81,0.89L524.81,865.44z"/>
<path class="st1" d="M580.65,859.2l10.81-1.77l2.7,20.47v6.22c0,1.77-0.9,3.56-1.8,5.34c-1.8,1.79-2.7,2.67-4.51,3.56
	c-1.8,0.89-3.6,1.79-6.3,2.67h-5.41c-2.7,0-4.5,0-5.4-0.89c-1.8,0-2.71-0.9-4.51-1.79c-0.9-0.89-1.8-2.66-2.7-3.56
	c-0.9-2.66-1.8-4.45-1.8-6.22l-2.7-20.47l9.91-1.79l3.6,21.36c0,1.79,0.9,3.56,1.8,4.46c1.8,0.89,2.71,0.89,4.51,0.89
	c1.8-0.89,3.6-0.89,4.5-2.67c0.9-0.89,0.9-2.67,0.9-4.45L580.65,859.2z"/>
<path class="st1" d="M603.18,890.35l-9.01-33.82l17.12-4.45h0.91v7.11l-0.91,0.9l-4.5,0.89l1.8,7.12l3.61-0.89v6.22
	c-0.91,0-0.91,0.9-0.91,0.9h-0.9l1.81,6.21v8.02L603.18,890.35z M612.2,880.55v8.02l1.79-0.9L612.2,880.55z M612.2,852.08
	c2.7-0.9,5.4-0.9,7.2-0.9c1.8,0,2.71,0.9,4.51,1.8c1.8,1.77,2.7,2.66,2.7,5.32c0.9,1.79,0.9,3.56,0,5.35c0,0.89-0.9,2.66-1.8,3.56
	c-0.9,0.89-1.8,1.77-3.61,2.66c1.81,0,2.71,0,2.71,0.9c0.9,0,1.8,0,2.7,0.89c0.9,0.89,1.8,0.89,1.8,1.77l7.21,8.01l-10.81,3.56
	l-9.01-8.9c-0.9-0.9-1.81-1.77-1.81-1.77c-0.9-0.9-1.79-0.9-1.79-0.9v-6.22l0.89-0.9c0,0,0.9,0,1.81-0.89c0.9,0,1.8-0.89,1.8-1.77
	v-1.79c0-0.89-0.9-1.77-1.8-2.67h-2.7V852.08z"/>
<path class="st1" d="M648.28,870.77l-2.7,1.77v5.35l-9.91,4.44l0.9-37.37l10.81-4.45l0.9,1.77v14.24l-3.61-5.34l0.91,13.35l2.7-1.77
	V870.77z M657.28,868.09l-9.01,2.67v-8.01l3.6-0.89l-3.6-5.35v-14.24l22.53,26.71l-10.82,3.55L657.28,868.09z"/>
<path class="st1" d="M659.95,836.07l9.01-4.45l10.81,24.02l15.3-7.11l3.61,7.11l-24.32,12.47L659.95,836.07z"/>
<path class="st1" d="M729.32,796.9l8.11-6.24l12.62,16.92c0.89,1.76,1.8,3.55,2.7,5.32v5.35c0,2.67-0.9,3.56-1.81,5.34
	c-0.89,1.79-2.69,3.55-5.4,5.35c-0.9,0.88-2.71,1.77-4.51,2.65c-1.8,0.9-3.6,1.79-4.5,1.79c-1.8,0.89-3.6,0.89-5.41,0
	c-0.89,0-2.7-0.89-3.6-1.79c-1.8-1.77-3.6-2.65-4.5-4.45l-11.71-16.9l8.11-6.22l12.61,17.8c0.9,0.89,2.7,1.77,3.6,2.67
	c1.8,0,3.6-0.9,4.5-1.79c1.81-0.89,2.7-2.67,2.7-3.56c0-1.77,0-3.56-0.89-4.45L729.32,796.9z"/>
<path class="st1" d="M741.06,788.87l8.11-6.24l21.61,6.24l-12.61-15.12l8.11-6.24l22.51,25.81l-8.11,7.12l-21.61-6.24l12.61,14.23
	l-8.1,7.12L741.06,788.87z"/>
<path class="st1" d="M770.77,763.06l7.2-7.11l24.32,24.91l-8.11,7.12L770.77,763.06z"/>
<path class="st1" d="M779.81,755.05l7.21-8.01l23.42,10.67l-13.52-23.15l7.2-8l17.12,32.92l-7.2,8.91L779.81,755.05z"/>
<path class="st1" d="M803.23,727.46l16.2-24.05l6.32,4.47l-9.91,14.24l4.5,3.56l9-13.36l5.41,3.56l-9,14.24l5.4,3.56l10.82-15.12
	l6.3,4.45l-17.12,24.02L803.23,727.46z"/>
<path class="st1" d="M837.44,709.65l-15.32-8.9l8.11-15.15c1.81-3.56,3.61-5.32,4.5-6.21c0.91-0.9,1.81-1.79,2.71-1.79v9.79
	c0,0.89-0.9,1.77-1.8,3.56l-2.71,3.56l4.51,2.67V709.65z M851.85,717.64l-14.41-8v-12.46l1.8,0.89l1.8-3.56
	c0.91-0.89,0.91-1.79,0.91-2.67c0.89-0.89,0.89-1.76,0-2.67c0,0,0-0.89-0.91-0.89c-0.9-0.89-1.8-0.89-2.7-0.89h-0.9v-9.79
	c0.9-0.89,1.8-0.89,1.8-0.89c2.71,0,4.51,0,6.31,1.77c1.8,0.9,2.7,1.79,3.6,3.55c0.9,0.91,0.9,2.67,0.9,4.46v3.57
	c0.9-0.91,1.8-1.8,1.8-1.8c0.9,0,1.8,0,2.71-0.89h2.7l10.81,0.89l-5.41,10.69l-11.71-0.89c-1.8,0-2.7,0-3.6,0.89
	c-0.9,0-1.8,0.89-1.8,1.79l-0.9,0.88l12.61,7.12L851.85,717.64z"/>
<path class="st1" d="M859.09,682.04l3.6-9.79h3.61c1.8,0,2.7-1.77,3.6-3.56c0.9-0.89,0.9-2.66,0.9-3.55c-0.9-0.9-0.9-1.77-1.8-1.77
	c-0.9-0.9-1.8-0.9-2.7,0c-0.9,0-2.7,1.77-4.51,4.44c-2.7,3.56-5.4,6.24-7.2,7.12c-2.71,1.79-5.41,1.79-7.21,0
	c-1.8,0-3.6-1.77-4.5-2.68c-0.9-1.77-1.81-3.56-1.81-6.22c0-2.66,0.91-5.35,2.71-8.02c1.8-4.44,3.6-7.11,6.3-8.89
	c1.8-1.77,4.51-1.77,8.11-0.89l-2.7,9.77h-4.51c-0.9,0.9-1.8,1.8-1.8,3.57c-0.9,0.89-0.9,1.79-0.9,2.66c0.9,0.9,0.9,0.9,1.8,1.79
	c0,0,0.9,0,1.8-0.89c0,0,0.9-0.9,2.71-2.67c2.71-3.56,4.5-6.24,6.3-8.02c1.8-0.88,3.61-1.76,5.41-2.65c1.8,0,3.6,0,5.4,0.89
	c1.81,0.89,3.61,2.67,4.51,4.45c0.9,1.77,1.8,3.55,1.8,6.24c0,2.66-0.9,5.32-1.8,8c-2.7,6.24-4.51,8.9-8.11,10.67
	C865.39,682.94,862.68,682.94,859.09,682.04z"/>
<path class="st1" d="M850.97,640.21l4.51-10.69L887,641.99l-3.6,9.8L850.97,640.21z"/>
<path class="st1" d="M856.4,628.64l7.2-32.04l8.11,1.79l-2.7,10.67l25.21,7.12l-2.7,9.79l-24.31-6.22l-2.7,10.67L856.4,628.64z"/>
<path class="st1" d="M864.49,597.47l0.9-12.46l12.61-5.34l-10.8-8.01l1.79-12.45L887,575.22l14.42,1.77l-1.81,10.67l-14.41-1.77
	L864.49,597.47z"/>
</svg>
