<?xml version="1.0" encoding="UTF-8"?><svg id="Logo" xmlns="http://www.w3.org/2000/svg" viewBox="0 0 340.19 82.73"><path shape-rendering="geometricPrecision" d="m82.64,45.22h5.94l13.07-32.92-6.14-2.03-9.85,26.93h-.1l-8.76-26.93-6.39,2.03,12.23,32.92Z" fill="#b11116" stroke-width="0"/><path shape-rendering="geometricPrecision" d="m103.88,45.22h6.04l.25-24.95h-6.04l-.25,24.95Zm.25-28.41h6.04l.05-5.84h-6.04l-.05,5.84Z" fill="#b11116" stroke-width="0"/><path shape-rendering="geometricPrecision" d="m130.55,38c-1.39,1.44-2.87,2.77-5.1,2.77-3.02,0-5.35-2.92-5.35-8.17,0-3.81,1.88-7.87,5.64-7.87,2.13,0,3.51,1.14,5.05,2.38l3.42-3.32c-2.23-2.48-5.05-4.21-8.71-4.21-7.43,0-11.73,6.68-11.73,13.56,0,6.04,3.71,12.77,10.84,12.77,3.96,0,6.88-1.78,9.31-4.75l-3.37-3.17Z" fill="#b11116" stroke-width="0"/><path shape-rendering="geometricPrecision" d="m149.51,40.17c-.84.59-1.73,1.19-2.77,1.19-1.49,0-2.03-.99-2.03-2.62,0-1.83,0-4.11.05-6.58l.15-7.33h5.54v-4.55l-5.54.1.2-8.91h-6.04l-.2,8.91-3.37-.1v4.55h3.37l-.15,7.62c-.05,2.18-.05,4.85-.05,5.99,0,5.3,2.62,7.47,6.78,7.47.74,0,2.18-.1,3.76-.99l2.03-1.09-1.73-3.66Z" fill="#b11116" stroke-width="0"/><path shape-rendering="geometricPrecision" d="m151.72,32.75c0,7.08,3.81,13.17,11.93,13.17,7.52,0,11.93-6.09,11.93-13.17s-4.01-13.17-11.93-13.17c-7.33,0-11.93,6.58-11.93,13.17Zm6.04.2c0-3.46,1.39-8.51,5.89-8.51,4.06,0,5.89,3.32,5.89,8.51,0,3.47-1.53,8.12-5.89,8.12s-5.89-5.1-5.89-8.12Z" fill="#b11116" stroke-width="0"/><path shape-rendering="geometricPrecision" d="m179.19,45.22h6.09l.15-15.44c1.24-2.62,2.92-4.36,5.25-4.36.45,0,.94.1,1.44.2l.99-5.79c-.59-.15-1.19-.25-1.78-.25-3.07.1-4.6,2.48-5.79,5.35l-.05-.1v-4.55h-6.04l-.25,24.95Z" fill="#b11116" stroke-width="0"/><path shape-rendering="geometricPrecision" d="m233.87,38.24c-2.08,1.19-4.26,2.23-8.61,2.23-6.39,0-10.89-6.04-10.89-12.57s4.41-12.18,11.09-12.18c2.72,0,6.14,1.14,8.22,2.92l2.77-4.41c-3.12-2.62-7.13-3.96-11.19-3.96-10.2,0-17.52,7.38-17.52,17.92s7.57,17.72,17.77,17.72c3.86,0,7.72-1.09,10.89-3.32l-2.52-4.36Z" fill="#b11116" stroke-width="0"/><path shape-rendering="geometricPrecision" d="m239.46,45.22h6.04l.1-16.93c1.53-1.49,3.61-3.27,5.49-3.27,2.53,0,3.27,1.44,3.27,3.37s-.05,6.73-.1,10.59l-.05,6.24h6.04l.15-12.52c0-1.58.05-3.12.05-5.59,0-3.86-1.39-7.52-6.63-7.52-3.32,0-6.14,1.53-8.07,3.71h-.1l.1-15.2h-6.04l-.25,37.13Z" fill="#b11116" stroke-width="0"/><path shape-rendering="geometricPrecision" d="m268.27,27.85c3.76-2.92,5.25-3.42,6.48-3.42,1.68,0,2.87.54,2.87,3.32v1.63c-10.79,1.78-13.36,5.25-13.36,9.26,0,4.45,3.02,7.28,7.47,7.28,2.38,0,4.6-1.24,6.39-3.32.45,2.08,2.18,3.32,4.31,3.32,1.14,0,2.57-.3,5.2-2.03l-1.44-3.02c-1.04.49-1.48.64-1.78.64-.64,0-1.34-.99-1.34-2.38,0-1.04.05-1.98.1-3.12l.2-7.18c.05-.64.05-1.19.05-2.08,0-4.85-3.42-7.18-7.13-7.18-2.67,0-5.45.59-10.89,5.05l2.87,3.22Zm9.21,11.19c-1.44,1.53-3.07,2.33-4.31,2.33-1.88,0-3.17-1.09-3.17-2.92,0-2.53,1.83-3.91,7.57-5.2l-.1,5.79Z" fill="#b11116" stroke-width="0"/><path shape-rendering="geometricPrecision" d="m289.75,45.22h6.04l.1-16.93c1.53-1.49,3.61-3.27,5.49-3.27,2.53,0,3.27,1.09,3.27,4.16s-.05,5.94-.1,9.8l-.05,6.24h6.04l.15-12.52c0-1.58.05-3.12.05-5.59,0-3.86-1.39-7.52-6.63-7.52-3.32,0-6.14,1.53-8.07,3.71h-.1v-3.02h-5.94l-.25,24.95Z" fill="#b11116" stroke-width="0"/><path shape-rendering="geometricPrecision" d="m340.19,24.38v-3.86l-8.07.15c-1.49-.59-2.72-1.09-5.54-1.09-5.15,0-9.65,3.12-9.65,8.47,0,2.43,1.04,4.55,3.42,5.84-4.16,2.62-5.84,3.71-5.84,5.89,0,2.43,3.07,2.97,5.35,3.47v.1c-2.62,1.34-5.35,2.92-5.35,6.53s3.32,7.33,11.29,7.33c6.29,0,13.61-3.42,13.61-10.25,0-6.19-5.89-6.93-11.48-7.43-5.59-.49-7.13-.69-7.13-1.78,0-.89,1.24-1.58,2.18-2.28.94.3,2.52.64,4.55.64,4.75,0,9.21-2.92,9.21-8.07,0-1.44-.5-2.77-1.44-3.81l4.9.15Zm-20.54,24.65c0-2.38,2.43-3.71,4.36-4.9,8.66,1.04,9.65,1.34,9.65,3.96s-3.07,5.25-7.38,5.25c-2.62,0-6.63-1.09-6.63-4.31Zm7.42-25.59c2.43,0,3.91,1.98,3.91,4.36,0,2.62-1.34,4.46-4.06,4.46-2.87,0-4.26-2.03-4.26-4.21,0-2.72,1.63-4.6,4.41-4.6Z" fill="#b11116" stroke-width="0"/><path shape-rendering="geometricPrecision" d="m86.92,54.48c-1.44-.77-2.86-1.2-4.62-1.2-4.41,0-7.89,3.18-7.89,7.74,0,4.86,3.48,7.74,7.89,7.74,1.57,0,3.22-.62,4.56-1.4l-.73-1.31c-1.16.67-2.52,1.16-3.83,1.16-3.46,0-5.91-2.75-5.91-6.19s2.45-6.19,5.91-6.19c1.44,0,2.69.3,3.85,1.12l.77-1.46Z" stroke-width="0"/><path shape-rendering="geometricPrecision" d="m97.98,67.1c-.28.19-.54.37-.9.37-.67,0-.77-.75-.77-1.53,0-1.89.17-3.76.17-5.78,0-1.66-.9-2.71-2.69-2.71-1.55,0-2.24.39-4.39,1.78l.71,1.12c1.57-1.18,2.26-1.48,3.1-1.48,1.14,0,1.63.69,1.63,1.61,0,.45-.02.9-.04,1.35-2.34.09-6.26.8-6.26,3.83,0,1.81,1.2,3.1,3.1,3.1,1.38,0,2.41-.77,3.22-1.78.09.9.62,1.78,1.59,1.78.75,0,1.4-.3,2-.77l-.47-.88Zm-3.27-1.2c-.67.82-1.48,1.57-2.54,1.57-1.18,0-1.91-.62-1.91-1.83,0-1.83,1.55-2.39,4.54-2.77l-.09,3.03Z" stroke-width="0"/><path shape-rendering="geometricPrecision" d="m100.06,68.46h1.72l.09-7.03c.92-1.72,2.06-2.3,2.77-2.3.24,0,.49.06.67.11l.52-1.63c-.24-.09-.56-.15-.92-.15-1.55,0-2.6,1.46-2.97,2.43l-.04-.04.02-2.09h-1.76l-.09,10.71Z" stroke-width="0"/><path shape-rendering="geometricPrecision" d="m113.86,58.85h-.04c-.41-.75-1.48-1.4-2.75-1.4-2.43,0-4.84,2.47-4.84,5.72,0,4.21,2.47,5.59,4.3,5.59,1.5,0,2.77-.82,3.27-1.74h.04l-.04,1.44h1.74l.17-16.12h-1.76l-.09,6.51Zm-.04,6.51c-.41.9-1.53,1.98-2.9,1.98-1.46,0-2.84-1.33-2.84-4.24,0-2.13,1.29-4.24,3.2-4.24,1.03,0,1.87.45,2.6,1.72l-.06,4.77Z" stroke-width="0"/><path shape-rendering="geometricPrecision" d="m118.78,68.46h1.72l.09-10.71h-1.72l-.09,10.71Zm0-12.94h1.85v-1.93h-1.85v1.93Z" stroke-width="0"/><path shape-rendering="geometricPrecision" d="m132.39,67.1c-.28.19-.54.37-.9.37-.67,0-.77-.75-.77-1.53,0-1.89.17-3.76.17-5.78,0-1.66-.9-2.71-2.69-2.71-1.55,0-2.24.39-4.39,1.78l.71,1.12c1.57-1.18,2.26-1.48,3.1-1.48,1.14,0,1.63.69,1.63,1.61,0,.45-.02.9-.04,1.35-2.34.09-6.26.8-6.26,3.83,0,1.81,1.2,3.1,3.1,3.1,1.38,0,2.41-.77,3.22-1.78.09.9.62,1.78,1.59,1.78.75,0,1.4-.3,2-.77l-.47-.88Zm-3.27-1.2c-.67.82-1.48,1.57-2.54,1.57-1.18,0-1.91-.62-1.91-1.83,0-1.83,1.55-2.39,4.54-2.77l-.09,3.03Z" stroke-width="0"/><path shape-rendering="geometricPrecision" d="m142.21,59.23c-.84-1.07-2.11-1.78-3.5-1.78-2.92,0-5.01,2.71-5.01,5.65,0,3.55,2.09,5.65,4.75,5.65,1.46,0,2.58-.56,3.61-1.78l-.88-1.01c-.52.69-1.51,1.38-2.43,1.38-1.66,0-3.2-1.5-3.2-3.91,0-3.01,1.63-4.56,3.22-4.56.88,0,1.66.43,2.32,1.25l1.12-.88Z" stroke-width="0"/><path shape-rendering="geometricPrecision" d="m150.16,68.46h1.87l.09-6.36h1.18c1.42,0,1.85.86,2.77,2.04l3.5,4.77,1.63-.99-2.99-3.96c-.62-.77-1.46-2.11-2.45-2.3v-.04c2.09-.28,3.74-1.7,3.74-4.13s-1.91-3.91-4.73-3.91h-4.49l-.13,14.88Zm1.98-13.59h2.21c2.41,0,3.31,1.4,3.31,2.99,0,2.17-1.89,2.82-3.72,2.82h-1.85l.04-5.8Z" stroke-width="0"/><path shape-rendering="geometricPrecision" d="m171.38,62.87v-.34c0-2.88-1.25-5.07-4.13-5.07s-4.9,2.71-4.9,5.65c0,3.5,1.72,5.65,4.69,5.65,1.59,0,2.99-.82,4.08-1.91l-.84-.92c-.92.84-1.83,1.55-3.05,1.55-2.19,0-3.03-2-3.03-4.24v-.37h7.18Zm-7.03-1.16c.28-1.46,1.31-2.97,2.92-2.97,1.74,0,2.39,1.44,2.39,2.97h-5.31Z" stroke-width="0"/><path shape-rendering="geometricPrecision" d="m172.95,67.7c.97.62,2.11,1.05,3.35,1.05,1.76,0,3.55-1.2,3.55-3.25,0-3.63-4.97-2.69-4.97-4.99,0-1.27.92-1.78,2.17-1.78.75,0,1.42.37,2.04.71l.8-1.1c-.8-.54-1.91-.9-3.12-.9-1.96,0-3.61,1.18-3.61,3.2,0,3.59,4.97,2.43,4.97,5.1,0,1.2-1.14,1.72-2.09,1.72s-1.76-.49-2.36-.9l-.73,1.14Z" stroke-width="0"/><path shape-rendering="geometricPrecision" d="m190.49,62.87v-.34c0-2.88-1.25-5.07-4.13-5.07s-4.9,2.71-4.9,5.65c0,3.5,1.72,5.65,4.69,5.65,1.59,0,2.99-.82,4.08-1.91l-.84-.92c-.92.84-1.83,1.55-3.05,1.55-2.19,0-3.03-2-3.03-4.24v-.37h7.18Zm-7.03-1.16c.28-1.46,1.31-2.97,2.92-2.97,1.74,0,2.39,1.44,2.39,2.97h-5.31Z" stroke-width="0"/><path shape-rendering="geometricPrecision" d="m201.65,67.1c-.28.19-.54.37-.9.37-.67,0-.77-.75-.77-1.53,0-1.89.17-3.76.17-5.78,0-1.66-.9-2.71-2.69-2.71-1.55,0-2.24.39-4.39,1.78l.71,1.12c1.57-1.18,2.26-1.48,3.1-1.48,1.14,0,1.63.69,1.63,1.61,0,.45-.02.9-.04,1.35-2.34.09-6.26.8-6.26,3.83,0,1.81,1.2,3.1,3.1,3.1,1.38,0,2.41-.77,3.22-1.78.09.9.62,1.78,1.59,1.78.75,0,1.4-.3,2-.77l-.47-.88Zm-3.27-1.2c-.67.82-1.48,1.57-2.54,1.57-1.18,0-1.91-.62-1.91-1.83,0-1.83,1.55-2.39,4.54-2.77l-.09,3.03Z" stroke-width="0"/><path shape-rendering="geometricPrecision" d="m203.73,68.46h1.72l.09-7.03c.92-1.72,2.06-2.3,2.77-2.3.24,0,.49.06.67.11l.52-1.63c-.24-.09-.56-.15-.92-.15-1.55,0-2.6,1.46-2.97,2.43l-.04-.04.02-2.09h-1.76l-.09,10.71Z" stroke-width="0"/><path shape-rendering="geometricPrecision" d="m218.41,59.23c-.84-1.07-2.11-1.78-3.5-1.78-2.92,0-5.01,2.71-5.01,5.65,0,3.55,2.09,5.65,4.75,5.65,1.46,0,2.58-.56,3.61-1.78l-.88-1.01c-.52.69-1.51,1.38-2.43,1.38-1.66,0-3.2-1.5-3.2-3.91,0-3.01,1.63-4.56,3.22-4.56.88,0,1.66.43,2.32,1.25l1.12-.88Z" stroke-width="0"/><path shape-rendering="geometricPrecision" d="m220.21,68.46h1.72l.09-7.48c1.1-1.33,2.09-1.98,3.2-1.98,1.18,0,1.96.54,1.96,1.7,0,1.05-.02,2-.02,2.95l-.04,4.82h1.72l.04-5.31c0-.82.02-1.63.02-2.45,0-1.98-.8-3.25-3.27-3.25-1.27,0-2.73.73-3.59,1.98h-.04l.09-7.09h-1.78l-.09,16.12Z" stroke-width="0"/><path shape-rendering="geometricPrecision" d="m238.5,68.46h1.85l.13-14.88h-1.85l-.13,14.88Z" stroke-width="0"/><path shape-rendering="geometricPrecision" d="m244.11,68.46h1.72l.09-7.48c1.1-1.33,2.09-1.98,3.2-1.98,1.18,0,1.96.54,1.96,1.7,0,1.05-.02,2-.02,2.95l-.04,4.82h1.72l.04-5.31c0-.82.02-1.63.02-2.45,0-1.98-.8-3.25-3.27-3.25-1.27,0-2.73.73-3.63,2.02h-.04l.06-1.72h-1.72l-.09,10.71Z" stroke-width="0"/><path shape-rendering="geometricPrecision" d="m255.14,67.7c.97.62,2.11,1.05,3.35,1.05,1.76,0,3.55-1.2,3.55-3.25,0-3.63-4.97-2.69-4.97-4.99,0-1.27.92-1.78,2.17-1.78.75,0,1.42.37,2.04.71l.8-1.1c-.8-.54-1.91-.9-3.12-.9-1.96,0-3.61,1.18-3.61,3.2,0,3.59,4.97,2.43,4.97,5.1,0,1.2-1.14,1.72-2.09,1.72s-1.76-.49-2.36-.9l-.73,1.14Z" stroke-width="0"/><path shape-rendering="geometricPrecision" d="m263.26,57.75v1.29h1.83l-.04,3.91c-.02,1.48-.02,2.36-.02,3.07,0,1.7.64,2.73,2.3,2.73.95,0,1.98-.45,2.69-.92l-.56-1.12c-.41.26-1.14.62-1.72.62-.73,0-.99-.49-.99-1.38,0-.54,0-1.33.02-2.54l.04-4.39h2.95v-1.29h-2.92l.04-3.96h-1.72l-.04,3.96h-1.85Z" stroke-width="0"/><path shape-rendering="geometricPrecision" d="m271.4,68.46h1.72l.09-10.71h-1.72l-.09,10.71Zm0-12.94h1.85v-1.93h-1.85v1.93Z" stroke-width="0"/><path shape-rendering="geometricPrecision" d="m275.18,57.75v1.29h1.83l-.04,3.91c-.02,1.48-.02,2.36-.02,3.07,0,1.7.64,2.73,2.3,2.73.95,0,1.98-.45,2.69-.92l-.56-1.12c-.41.26-1.14.62-1.72.62-.73,0-.99-.49-.99-1.38,0-.54,0-1.33.02-2.54l.04-4.39h2.95v-1.29h-2.92l.04-3.96h-1.72l-.04,3.96h-1.85Z" stroke-width="0"/><path shape-rendering="geometricPrecision" d="m283.54,63.06c0,.82-.02,1.63-.02,2.45,0,1.98.8,3.25,3.27,3.25,1.27,0,2.73-.73,3.63-2.02h.04l-.06,1.72h1.72l.09-10.71h-1.72l-.09,7.48c-1.1,1.33-2.09,1.98-3.2,1.98-1.18,0-1.96-.54-1.96-1.7,0-1.05.02-2,.02-2.95l.04-4.82h-1.72l-.04,5.31Z" stroke-width="0"/><path shape-rendering="geometricPrecision" d="m294.29,57.75v1.29h1.83l-.04,3.91c-.02,1.48-.02,2.36-.02,3.07,0,1.7.64,2.73,2.3,2.73.95,0,1.98-.45,2.69-.92l-.56-1.12c-.41.26-1.14.62-1.72.62-.73,0-.99-.49-.99-1.38,0-.54,0-1.33.02-2.54l.04-4.39h2.95v-1.29h-2.92l.04-3.96h-1.72l-.04,3.96h-1.85Z" stroke-width="0"/><path shape-rendering="geometricPrecision" d="m310.86,62.87v-.34c0-2.88-1.25-5.07-4.13-5.07s-4.9,2.71-4.9,5.65c0,3.5,1.72,5.65,4.69,5.65,1.59,0,2.99-.82,4.08-1.91l-.84-.92c-.92.84-1.83,1.55-3.05,1.55-2.19,0-3.03-2-3.03-4.24v-.37h7.18Zm-7.03-1.16c.28-1.46,1.31-2.97,2.92-2.97,1.74,0,2.39,1.44,2.39,2.97h-5.31Z" stroke-width="0"/><path shape-rendering="geometricPrecision" d="m47.67,51.41c-.49,0-2.47.74-2.61.86-.27-.84-2.63-1.2-3.35-1.2-.43,0-2.72.34-3.15.34s-1.53-1.53-1.96-1.53c-.45,0-.81.51-1.84.53-.37.89-1.57,2.03-1.57,2.45s.23.42.23.42c.41-.17.62-.34,1.05-.34.98,0,1.52,1.9,2.25,2.37.05-.25.13-.33.36-.36.02-.4-.49-.57-.49-1s.15-.37.29-.52c.14,0-.03.35.39.34h.47c.2-.38.36-.7.5-.85,2.69,0,3.04.18,3.38.18,2.55-.15,3.74-.34,4.17-.34.38,0,2.3,1.19,2.3,1.19.43,0,.4-.02.59-.22v-1.38c0-.23-.4-.96-1.02-.96Z" fill-rule="evenodd" stroke-width="0"/><path shape-rendering="geometricPrecision" d="m38.14,55.07c0,.23,4.04,1.96,4.6,1.96.06,0,1.95-.81,2.21-1.31-1.46-.39-4.44-1.41-5.87-1.41-.55,0-.94.43-.94.77Z" fill-rule="evenodd" stroke-width="0"/><path shape-rendering="geometricPrecision" d="m56.7,31.92c0-1.34-1.54-1.4-2.72-2.56.75-1.16,1.19-1.05,1.19-1.78,0-.96-3.23-2.64-3.23-7.09v-2.34C51.93,9.29,39.78.4,32.38.02c-.03.23-.9-.02-1.32-.02h-3.77c-1,.02-3.34.3-3.34.3C10.43.3,2.72,14.32,2.72,24.75v3.27c.24,1.03.85,2.67.85,3.82,0,.43-.34,1.62-.34,2.04,0,3.19,3.39,7.18,4.54,9.99,1.49,3.64,4.03,8.61,6.19,11.73v.46c-1.32,1.18-1.86,2.94-3.2,3.82-1.72,1.13-10.77,1.94-10.77,4.22,0,.43.21.58.4.7,4.55.51,9.36,3.61,13.6,6.73,4.15,3.09,6.38,7.7,9.89,11.2h1.09c.24-2.62-.63-4.54-.63-6.97,0-6.81,11.43-10.9,15.83-10.9.43,0,2.31.17,3.55-.03v-.97c-3.04-.11-5.88-2.35-8.14-4.09-.32-.23-2.12-3.76-2.39-3.76-.43,0-1.45.34-1.87.34s-.54.02-.68-.11v-.63c0-.43.73-1.42.85-2.74.26-2.72.17-3.5.17-3.92,0-4.04-4.43-8.13-4.43-8.34,0-.43.15-.28.29-.43,3.71,0,4.26.17,4.63-.03v-.61c-1.26-.33-1.69-.63-1.69-1.56,0-1.47-.69-3.07,1.27-3.07l5.09.68c1.23,0,1.21-1.69,2.05-2.22.18.31.78,2.58.78,3.15,0,.43-.34,1.19-.34,1.62s.34.34.34.77c0,.06-2.72,3.92-2.72,5.11,0,1.04,1.51,2.47,2.66,2.46h.53c.2-.38.3-.85.72-.85.34,0,1.62.68,2.21.68.89,0,1.34.12,2.38-.9v-.58c-.53-.54-1.44-1.24-1.86-1.24s-2.13.68-2.55.68-.2.02-.35-.12c0-.48-.16-1.16-.16-1.58s.26-.51.68-.51.85.51,1.28.51.41-.2.41-.2c.19-.71.36-1.76.36-2.18,0-.81-1.02-1.47-1.02-2.04,0-.43.49-.71.84-1.07v-2.9c.32-.31.6-.8,1.03-.8s.9.16,1.2.3c-.01.3-.52.64-.52,1.06s1.19,1.96,1.19,2.38,0,.94.03,1.51l.98-.19c-.33-1.77-.67-3.54-.67-3.96s.16-.64.29-.95h.43c.44.92.07,2.22,1.41,2.22.43,0,.4-.02.59-.22v-.58c-.91-1.09-1.18-.65-1.18-1.59,0-.43.15-.54.28-.69h.61c.86,1.39.96,1.88,2,1.88.68,0,.61-.15,1.64-1.2.09.02,2.61.34,2.61,1.54,0,1.77-.43,2.23-1.87,4.18.2.22.42.25.42.25.84-.26,2.82-3.47,2.81-3.68v-2.22c-.19-.2-.36-.37-.51-.46.29-.11.85-.61.85-1.04Zm-21.2-.94c-.85,0-1.86.17-2.74.34,0,0-.16-.17-.41-.22,1.37-1.81,1.42-2.68,3.4-2.68,1.23,0,2.83.63,3.39,2.51-.73.21-1.61.04-3.65.04Zm19.71,1.86c-4.58-1.27-1.85-1.52-5.07-1.52-1.49,0-3.92,1.7-4.51,1.7-1.09,0-.47-.34-2.18-.36-.2-.73-.88-1.85-.88-2.28s.51-1.02.51-1.45c0-3.19-8.51-3.19-8.51-4.6,0-2.28,3.42-2.03,4.43-2.66-1.46-2.41-4.58-5.36-6.12-7.7h1.59c.43-.02,4.11.83,4.53.83s3.41-.34,3.83-.34,2.98.34,3.41.34,1.36-.34,1.79-.34c2.38,0,3.23,9.02,3.23,10.13,0,.43-.21.58-.4.7-2.23.15-6.07,3.73-6.07,4.67,0,.64.51,1.19.85,1.19.06,0,3.09-2.72,5.02-2.72.51,0,.99.2,1.58.04v1.29c-.64-.32-1.38-.41-1.67-.03,0,.14.15.42.29.57h2.33c.7,0,2.28,1.25,2.02,2.54Z" fill-rule="evenodd" stroke-width="0"/></svg>
